<svg width="24" height="25" viewBox="0 0 24 25" fill="none" xmlns="http://www.w3.org/2000/svg">
<g clip-path="url(#clip0_3234_868)">
<path d="M11.7247 8.88197C11.8952 8.9802 12.1043 8.98264 12.2764 8.88713C13.2722 8.33441 16.5823 6.2338 16.5823 3.12504C16.5823 1.81564 15.5196 0.754159 14.2089 0.754159C13.3463 0.754159 12.5914 1.21385 12.1759 1.90131C12.0933 2.03787 11.8968 2.03787 11.8143 1.90131C11.3988 1.21385 10.6438 0.754159 9.78122 0.754159C8.40532 0.750503 7.41456 1.92352 7.41456 3.30411H7.41418C7.41418 6.18534 10.7394 8.31435 11.7247 8.88197Z" fill="white"/>
<path d="M12.3745 15.1097C12.1491 14.8339 11.7272 14.8348 11.5031 15.1118L8.03175 19.4016C7.86515 19.6075 7.86505 19.9018 8.03156 20.1078L11.6185 24.5456C11.844 24.8246 12.2696 24.8235 12.4937 24.5435L15.9646 20.2061C16.1301 19.9993 16.1286 19.705 15.961 19.5L12.3745 15.1097Z" fill="white"/>
<path d="M5.72682 16.3581H5.2421V14.5865C5.55403 14.8362 5.93569 14.9897 6.33906 15.0068C6.36628 15.008 6.3937 15.0085 6.42121 15.0085C7.88643 15.0093 9.07487 13.8541 9.07557 12.4284C9.07599 11.6252 8.70028 10.8668 8.05786 10.3623C6.76473 9.34676 5.56926 8.06469 4.96138 7.37836C4.73844 7.12665 4.34525 7.12646 4.12203 7.37794C3.51345 8.06361 2.31667 9.34447 1.02251 10.3587C0.379571 10.8626 0.00310768 11.6205 0.0026859 12.4237C0.00193607 13.8495 1.18916 15.0058 2.65442 15.0066C2.68207 15.0066 2.70963 15.006 2.737 15.0049C3.14111 14.9881 3.52367 14.8345 3.83616 14.5842V16.3581H3.35149C2.96326 16.3581 2.64852 16.6728 2.64852 17.061C2.64852 17.4493 2.96326 17.764 3.35149 17.764H5.72682C6.11504 17.764 6.42979 17.4493 6.42979 17.061C6.42979 16.6728 6.11504 16.3581 5.72682 16.3581Z" fill="white"/>
<path d="M21.6295 10.2118H21.6274C21.5371 10.2119 21.4755 10.1213 21.5109 10.0383C21.6463 9.72074 21.7129 9.36681 21.6917 8.99513C21.6239 7.81204 20.6513 6.86012 19.467 6.81621C18.1474 6.76728 17.0622 7.82253 17.0622 9.13123C17.0622 9.45319 17.1286 9.7594 17.2476 10.0378C17.2832 10.1211 17.2218 10.212 17.1313 10.2118C17.1293 10.2118 17.1273 10.2118 17.1253 10.2118C15.7869 10.2118 14.7078 11.3223 14.7592 12.6722C14.8069 13.9235 15.8447 14.9326 17.0969 14.9474C17.7013 14.9544 18.2539 14.7348 18.676 14.3685V16.3582H18.1822C17.794 16.3582 17.4792 16.673 17.4792 17.0612C17.4792 17.4494 17.794 17.7641 18.1822 17.7641H20.5756C20.9638 17.7641 21.2786 17.4494 21.2786 17.0612C21.2786 16.673 20.9638 16.3582 20.5756 16.3582H20.0819V14.3712C20.5035 14.7359 21.055 14.9544 21.658 14.9474C22.9102 14.9327 23.9479 13.9236 23.9957 12.6722C24.047 11.3223 22.9679 10.2118 21.6295 10.2118Z" fill="white"/>
</g>
<defs>
<clipPath id="clip0_3234_868">
<rect width="24" height="24" fill="white" transform="translate(0 0.75415)"/>
</clipPath>
</defs>
</svg>
