<svg width="24" height="25" viewBox="0 0 24 25" fill="none" xmlns="http://www.w3.org/2000/svg">
<g clip-path="url(#clip0_3234_2651)">
<path d="M5.67188 0.753906H7.07812V3.61328H5.67188V0.753906Z" fill="#0FFFE2"/>
<path d="M0 6.42578H2.85938V7.83203H0V6.42578Z" fill="#0FFFE2"/>
<path d="M0.955627 2.7041L1.94985 1.70988L4.05892 3.81895L3.0647 4.81317L0.955627 2.7041Z" fill="#0FFFE2"/>
<path d="M16.9219 0.753906H18.3281V3.61328H16.9219V0.753906Z" fill="#0FFFE2"/>
<path d="M21.1406 6.42578H24V7.83203H21.1406V6.42578Z" fill="#0FFFE2"/>
<path d="M19.9379 3.82129L22.047 1.71222L23.0412 2.70644L20.9321 4.81551L19.9379 3.82129Z" fill="#0FFFE2"/>
<path d="M17.9163 6.42578H6.08378L1.19397 11.3156L12 23.6654L22.8061 11.3156L17.9163 6.42578ZM9.09508 10.6445L10.9701 7.83203H13.03L14.905 10.6445H9.09508ZM15.2042 12.0508L12 20.5952L8.79588 12.0508H15.2042ZM7.294 12.0508L9.98519 19.2272L3.70577 12.0508H7.294ZM16.706 12.0508H20.2943L14.0149 19.2272L16.706 12.0508ZM20.1463 10.6445H16.595L14.72 7.83203H17.3338L20.1463 10.6445ZM6.66625 7.83203H9.28L7.405 10.6445H3.85375L6.66625 7.83203Z" fill="#0FFFE2"/>
</g>
<defs>
<clipPath id="clip0_3234_2651">
<rect width="24" height="24" fill="white" transform="translate(0 0.753906)"/>
</clipPath>
</defs>
</svg>
