<svg width="66" height="66" viewBox="0 0 66 66" fill="none" xmlns="http://www.w3.org/2000/svg">
<g clip-path="url(#clip0_3234_3742)">
<path d="M33 66C51.2254 66 66 51.2254 66 33C66 14.7746 51.2254 0 33 0C14.7746 0 0 14.7746 0 33C0 51.2254 14.7746 66 33 66Z" fill="#A3D4FF"/>
<path d="M65.9594 34.6455L59.3749 28.061L59.1685 28.3447L56.5524 25.7285L49.2403 34.5113L39.5809 24.852L32.8848 34.5342L23.2025 24.852L6.62451 46.3147L25.4398 65.13C27.8676 65.699 30.3986 66 32.9998 66C50.6735 66 65.1019 52.1064 65.9594 34.6455Z" fill="#65B1FC"/>
<path d="M38.8722 35.8135C42.1191 32.5666 42.1191 27.3024 38.8722 24.0556C35.6254 20.8087 30.3612 20.8087 27.1143 24.0556C23.8675 27.3024 23.8674 32.5666 27.1143 35.8135C30.3612 39.0604 35.6254 39.0604 38.8722 35.8135Z" fill="#FFCE00"/>
<path d="M41.3154 29.9342C41.3154 25.347 37.6008 21.6278 33.0156 21.6193V38.2491C37.6008 38.2407 41.3154 34.5215 41.3154 29.9342Z" fill="#FDBA12"/>
<path d="M37.0537 30.5902C37.4174 28.3467 35.8935 26.2332 33.6501 25.8695C31.4067 25.5058 29.2932 27.0297 28.9295 29.2732C28.5658 31.5167 30.0897 33.6303 32.3331 33.9939C34.5765 34.3576 36.69 32.8337 37.0537 30.5902Z" fill="white"/>
<path d="M37.1157 29.9342C37.1157 27.6664 35.2814 25.8274 33.0156 25.8189V34.0494C35.2815 34.0411 37.1157 32.2021 37.1157 29.9342Z" fill="#E9EDF5"/>
<path d="M22.4953 35.8117C25.7421 32.5649 25.7421 27.3007 22.4953 24.0538C19.2484 20.807 13.9842 20.807 10.7374 24.0538C7.4905 27.3007 7.4905 32.5649 10.7374 35.8117C13.9842 39.0586 19.2484 39.0586 22.4953 35.8117Z" fill="#FF6C52"/>
<path d="M24.9363 29.9342C24.9363 25.3448 21.2182 21.624 16.6299 21.6191V38.2493C21.2183 38.2446 24.9363 34.5237 24.9363 29.9342Z" fill="#FF432E"/>
<path d="M19.5263 32.8426C21.1334 31.2356 21.1334 28.63 19.5263 27.023C17.9193 25.4159 15.3137 25.4159 13.7067 27.023C12.0996 28.63 12.0996 31.2356 13.7067 32.8426C15.3137 34.4497 17.9193 34.4497 19.5263 32.8426Z" fill="white"/>
<path d="M20.7371 29.9342C20.7371 27.6642 18.8993 25.8237 16.6304 25.8188V34.0497C18.8993 34.0448 20.7371 32.2043 20.7371 29.9342Z" fill="#E9EDF5"/>
<path d="M57.4741 31.8665C58.5304 27.3981 55.7642 22.9194 51.2958 21.8632C46.8273 20.8069 42.3487 23.573 41.2924 28.0415C40.2362 32.5099 43.0023 36.9886 47.4707 38.0449C51.9392 39.1011 56.4178 36.335 57.4741 31.8665Z" fill="#7584F2"/>
<path d="M49.3783 21.6189C49.3597 21.6189 49.3414 21.6202 49.3228 21.6203V38.248C49.3413 38.2482 49.3596 38.2494 49.3783 38.2494C53.9707 38.2494 57.6937 34.5265 57.6937 29.9341C57.6937 25.3417 53.9707 21.6189 49.3783 21.6189Z" fill="#606AEA"/>
<path d="M53.3874 30.9006C53.9102 28.689 52.5411 26.4722 50.3295 25.9494C48.1178 25.4266 45.9011 26.7957 45.3783 29.0074C44.8555 31.2191 46.2246 33.4358 48.4362 33.9586C50.6479 34.4814 52.8646 33.1123 53.3874 30.9006Z" fill="white"/>
<path d="M49.3783 25.8186C49.3597 25.8186 49.3413 25.8198 49.3228 25.8201V34.0485C49.3413 34.0488 49.3596 34.0499 49.3783 34.0499C51.6513 34.0499 53.494 32.2074 53.494 29.9344C53.494 27.6614 51.6513 25.8186 49.3783 25.8186Z" fill="#E9EDF5"/>
<path d="M6.62451 28.061V46.3147H59.3749V28.061H6.62451ZM55.5077 31.9282V36.052H10.4917V31.9282H55.5077Z" fill="#555A66"/>
<path d="M33.0156 28.061V31.9282H55.5081V36.052H33.0156V46.3147H59.3753V28.061H33.0156Z" fill="#333940"/>
</g>
<defs>
<clipPath id="clip0_3234_3742">
<rect width="66" height="66" fill="white"/>
</clipPath>
</defs>
</svg>
