<svg width="67" height="66" viewBox="0 0 67 66" fill="none" xmlns="http://www.w3.org/2000/svg">
<g clip-path="url(#clip0_3234_3701)">
<path d="M33.5 66C51.7254 66 66.5 51.2254 66.5 33C66.5 14.7746 51.7254 0 33.5 0C15.2746 0 0.5 14.7746 0.5 33C0.5 51.2254 15.2746 66 33.5 66Z" fill="#FF6C52"/>
<path d="M66.4999 33C66.4999 32.6531 66.4945 32.3075 66.4839 31.9632L54.8994 20.3785L12.1006 46.748L31.279 65.9264C32.013 65.9753 32.7536 66 33.4999 66C51.7253 66 66.4999 51.2254 66.4999 33Z" fill="#F43425"/>
<path d="M12.1006 20.3785L33.4999 7.69479L54.8993 20.3785L33.4999 36.8757L12.1006 20.3785Z" fill="white"/>
<path d="M33.5 7.69479V36.8757L54.8993 20.3785L33.5 7.69479Z" fill="#E9EDF5"/>
<path d="M33.5 59.8521L54.8993 46.748V20.3785L33.5 33.4828L31.063 46.1243L33.5 59.8521Z" fill="#CDD2E1"/>
<path d="M33.4999 59.8521L12.1006 46.748V20.3785L33.4999 33.4828V59.8521Z" fill="#F2F6FC"/>
<path d="M45.422 43.2622C46.976 43.2622 48.2357 41.7623 48.2357 39.9119C48.2357 38.0616 46.976 36.5617 45.422 36.5617C43.8681 36.5617 42.6084 38.0616 42.6084 39.9119C42.6084 41.7623 43.8681 43.2622 45.422 43.2622Z" fill="#333940"/>
<path d="M27.8083 40.226C29.3622 40.226 30.6219 38.726 30.6219 36.8757C30.6219 35.0254 29.3622 33.5254 27.8083 33.5254C26.2543 33.5254 24.9946 35.0254 24.9946 36.8757C24.9946 38.726 26.2543 40.226 27.8083 40.226Z" fill="#555A66"/>
<path d="M16.863 46.6125C18.4169 46.6125 19.6766 45.1125 19.6766 43.2622C19.6766 41.4119 18.4169 39.912 16.863 39.912C15.309 39.912 14.0493 41.4119 14.0493 43.2622C14.0493 45.1125 15.309 46.6125 16.863 46.6125Z" fill="#555A66"/>
<path d="M36.2159 13.3647C36.2407 14.7284 35.025 15.8524 33.5 15.8524C31.975 15.8524 30.7592 14.7284 30.7841 13.3647C30.8084 12.0255 32.0241 10.9573 33.5 10.9573C34.9758 10.9573 36.1916 12.0255 36.2159 13.3647Z" fill="#555A66"/>
<path d="M33.5 10.9573V15.8524C35.025 15.8524 36.2408 14.7284 36.2159 13.3647C36.1916 12.0255 34.9758 10.9573 33.5 10.9573Z" fill="#333940"/>
<path d="M36.4608 26.8389C36.4903 28.4609 35.1649 29.7998 33.4999 29.7998C31.835 29.7998 30.5095 28.4609 30.5391 26.8389C30.5679 25.2486 31.8933 23.982 33.4999 23.982C35.1065 23.982 36.4319 25.2486 36.4608 26.8389Z" fill="#555A66"/>
<path d="M33.5 23.982V29.7998C35.165 29.7998 36.4904 28.4609 36.4608 26.8389C36.432 25.2486 35.1066 23.982 33.5 23.982Z" fill="#333940"/>
<path d="M48.5375 19.8112C48.6807 21.2957 47.5083 22.52 45.9164 22.52C44.3246 22.52 42.9605 21.2957 42.8713 19.8112C42.7838 18.3544 43.9611 17.1934 45.4994 17.1934C47.0378 17.1934 48.3968 18.3545 48.5375 19.8112Z" fill="#333940"/>
<path d="M24.1287 19.8112C24.0395 21.2957 22.6754 22.52 21.0836 22.52C19.4917 22.52 18.3193 21.2957 18.4625 19.8112C18.603 18.3544 19.9622 17.1934 21.5006 17.1934C23.039 17.1934 24.2163 18.3545 24.1287 19.8112Z" fill="#555A66"/>
</g>
<defs>
<clipPath id="clip0_3234_3701">
<rect width="66" height="66" fill="white" transform="translate(0.5)"/>
</clipPath>
</defs>
</svg>
