<svg width="67" height="66" viewBox="0 0 67 66" fill="none" xmlns="http://www.w3.org/2000/svg">
<g clip-path="url(#clip0_3234_3781)">
<path d="M33.5 66C51.7254 66 66.5 51.2254 66.5 33C66.5 14.7746 51.7254 0 33.5 0C15.2746 0 0.5 14.7746 0.5 33C0.5 51.2254 15.2746 66 33.5 66Z" fill="#FF6C52"/>
<path d="M66.4998 33C66.4998 30.0622 66.1159 27.2141 65.3956 24.503L53.3929 12.5003L13.396 48.0985L31.2199 65.9224C31.9732 65.9738 32.7335 66 33.4998 66C51.7252 66 66.4998 51.2254 66.4998 33Z" fill="#F43425"/>
<path d="M31.3867 44.8974H53.393V51.9528H31.3867V44.8974Z" fill="#FFCE00"/>
<path d="M42.4458 44.8974H53.393V51.9528H42.4458V44.8974Z" fill="#FFA300"/>
<path d="M31.3867 38.284H53.393V45.3394H31.3867V38.284Z" fill="#FFE85F"/>
<path d="M42.4458 38.284H53.393V45.3394H42.4458V38.284Z" fill="#FFC200"/>
<path d="M31.3867 38.284H42.4457V45.3394H31.3867V38.284Z" fill="#FFE85F"/>
<path d="M31.3867 32.0056H53.393V39.061H31.3867V32.0056Z" fill="#FFCE00"/>
<path d="M42.4458 32.0056H53.393V39.061H42.4458V32.0056Z" fill="#FFA300"/>
<path d="M31.3867 25.3921H53.393V32.4475H31.3867V25.3921Z" fill="#FFE85F"/>
<path d="M42.4458 25.3921H53.393V32.4475H42.4458V25.3921Z" fill="#FFC200"/>
<path d="M31.3867 19.1137H53.393V26.1691H31.3867V19.1137Z" fill="#FFCE00"/>
<path d="M42.4458 19.1137H53.393V26.1691H42.4458V19.1137Z" fill="#FFA300"/>
<path d="M31.3867 12.5003H53.393V19.5557H31.3867V12.5003Z" fill="#FFE85F"/>
<path d="M42.4458 12.5003H53.393V19.5557H42.4458V12.5003Z" fill="#FFC200"/>
<path d="M35.2779 48.5437C41.2032 42.6184 41.2032 33.0116 35.2779 27.0863C29.3526 21.161 19.7458 21.161 13.8205 27.0863C7.8952 33.0116 7.8952 42.6184 13.8205 48.5437C19.7458 54.469 29.3526 54.469 35.2779 48.5437Z" fill="#FFC200"/>
<path d="M24.5558 22.6415C24.5398 22.6415 24.5238 22.642 24.5078 22.6421V52.9908C24.5238 52.9908 24.5398 52.9914 24.5558 52.9914C32.9367 52.9914 39.7307 46.1973 39.7307 37.8165C39.7307 29.4355 32.9367 22.6415 24.5558 22.6415Z" fill="#FFB13B"/>
<path d="M31.5491 44.815C35.4151 40.949 35.4151 34.6811 31.5491 30.8151C27.6832 26.9491 21.4152 26.9491 17.5493 30.8151C13.6833 34.6811 13.6833 40.949 17.5493 44.815C21.4152 48.6809 27.6832 48.6809 31.5491 44.815Z" fill="#FFA300"/>
<path d="M24.5558 27.9154C24.5397 27.9154 24.5239 27.9166 24.5078 27.9167V47.7162C24.5239 47.7162 24.5397 47.7174 24.5558 47.7174C30.024 47.7174 34.4567 43.2845 34.4567 37.8165C34.4567 32.3484 30.024 27.9154 24.5558 27.9154Z" fill="#FE8205"/>
<path d="M22.5396 31.0275H26.5712V44.6054H22.5396V31.0275Z" fill="#FFE85F"/>
<path d="M24.5078 31.0275H26.5716V44.6054H24.5078V31.0275Z" fill="#FFC200"/>
</g>
<defs>
<clipPath id="clip0_3234_3781">
<rect width="66" height="66" fill="white" transform="translate(0.5)"/>
</clipPath>
</defs>
</svg>
