<svg width="42" height="39" viewBox="0 0 42 39" fill="none" xmlns="http://www.w3.org/2000/svg">
<rect x="1" y="1" width="40" height="37" rx="5" fill="url(#paint0_linear_3234_3195)"/>
<rect x="1" y="1" width="40" height="37" rx="5" stroke="white" stroke-width="2"/>
<path d="M33.8215 23.6055L21.752 11.423C21.6659 11.3363 21.5529 11.2657 21.4222 11.2171C21.2915 11.1684 21.1468 11.1431 21 11.1431C20.8532 11.1431 20.7085 11.1684 20.5778 11.2171C20.4471 11.2657 20.3341 11.3363 20.248 11.423L8.17853 23.6055C8.0767 23.7072 8.0158 23.8276 8.00268 23.9531C7.98956 24.0787 8.02474 24.2044 8.10426 24.3162C8.18268 24.4265 8.30127 24.519 8.44702 24.5835C8.59278 24.6479 8.76007 24.6819 8.93055 24.6816H33.0694C33.2399 24.6819 33.4072 24.6479 33.553 24.5835C33.6987 24.519 33.8173 24.4265 33.8957 24.3162C33.9753 24.2044 34.0104 24.0787 33.9973 23.9531C33.9842 23.8276 33.9233 23.7072 33.8215 23.6055Z" fill="white"/>
<defs>
<linearGradient id="paint0_linear_3234_3195" x1="0" y1="19.5" x2="42" y2="19.5" gradientUnits="userSpaceOnUse">
<stop stop-color="#0A626A"/>
<stop offset="1" stop-color="#14C0D0"/>
</linearGradient>
</defs>
</svg>
