<svg width="32" height="33" viewBox="0 0 32 33" fill="none" xmlns="http://www.w3.org/2000/svg">
<g clip-path="url(#clip0_3234_771)">
<path d="M16.9412 17.6953H18.8235V19.5777H16.9412V17.6953Z" fill="white"/>
<path d="M24.4706 6.40125H26.3529V8.2836H24.4706V6.40125Z" fill="white"/>
<path d="M13.1765 13.9307H15.0588V15.813H13.1765V13.9307Z" fill="white"/>
<path d="M7.52942 23.3424H9.41177V25.2248H7.52942V23.3424Z" fill="white"/>
<path d="M32 0.75415H18.8235V10.1659H9.41177V19.5777H0V32.7542H13.1765V23.3424H22.5882V13.9306H32V0.75415ZM11.2941 30.8718H1.88235V21.46H11.2941V30.8718ZM20.7059 21.46H13.1765V19.5777H11.2941V12.0483H18.8235V13.9306H20.7059V21.46ZM30.1176 12.0483H20.7059V2.6365H30.1176V12.0483Z" fill="white"/>
<path d="M3.76471 27.1071H5.64706V28.9894H3.76471V27.1071Z" fill="white"/>
<path d="M7.52942 27.1071H9.41177V28.9894H7.52942V27.1071Z" fill="white"/>
<path d="M3.76471 23.3424H5.64706V25.2248H3.76471V23.3424Z" fill="white"/>
</g>
<defs>
<clipPath id="clip0_3234_771">
<rect width="32" height="32" fill="white" transform="translate(0 0.75415)"/>
</clipPath>
</defs>
</svg>
