<svg width="10" height="10" viewBox="0 0 10 10" fill="none" xmlns="http://www.w3.org/2000/svg">
<path fill-rule="evenodd" clip-rule="evenodd" d="M9.16666 5C9.16666 5.575 8.69999 6.04167 8.12499 6.04167H6.04166V8.12501C6.04166 8.70001 5.57499 9.16667 4.99999 9.16667C4.42499 9.16667 3.95832 8.70001 3.95832 8.12501V6.04167H1.875C1.3 6.04167 0.833328 5.575 0.833328 5C0.833328 4.425 1.3 3.95834 1.875 3.95834H3.95832V1.875C3.95832 1.3 4.42499 0.833334 4.99999 0.833334C5.57499 0.833334 6.04166 1.3 6.04166 1.875V3.95834H8.12499C8.69999 3.95834 9.16666 4.425 9.16666 5Z" fill="white"/>
</svg>
